HIERARCHY
ROOT newVegas:Hips
{
	OFFSET 0.000000 96.479958 0.000000
	CHANNELS 6 Xposition Yposition Zposition Xrotation Yrotation Zrotation
	JOINT newVegas:Pelvis
	{
		OFFSET 0.000000 0.000000 0.000000
		CHANNELS 3 Xrotation Yrotation Zrotation
		JOINT newVegas:LeftUpLeg
		{
			OFFSET 18.735201 -5.666702 -4.541200
			CHANNELS 3 Xrotation Yrotation Zrotation
			JOINT newVegas:LeftLeg
			{
				OFFSET -0.021200 -31.938179 0.493100
				CHANNELS 3 Xrotation Yrotation Zrotation
				JOINT newVegas:LeftFoot
				{
					OFFSET 0.021200 -31.938179 -4.336299
					CHANNELS 3 Xrotation Yrotation Zrotation
					JOINT newVegas:LeftToeBase
					{
						OFFSET 0.943001 -26.722000 15.023500
						CHANNELS 3 Xrotation Yrotation Zrotation
						End Site
						{
							OFFSET 0.000000 30.670183 0.000000
						}
					}
				}
				JOINT newVegas:Left_PantLeg
				{
					OFFSET 0.663870 -9.044666 -1.108900
					CHANNELS 3 Xrotation Yrotation Zrotation
					End Site
					{
						OFFSET 1.415995 20.635357 0.000000
					}
				}
			}
		}
		JOINT newVegas:RightUpLeg
		{
			OFFSET -18.735201 -5.666702 -4.541200
			CHANNELS 3 Xrotation Yrotation Zrotation
			JOINT newVegas:RightLeg
			{
				OFFSET 0.018946 -31.938133 0.493100
				CHANNELS 3 Xrotation Yrotation Zrotation
				JOINT newVegas:RightFoot
				{
					OFFSET -0.018946 -31.938126 -4.336299
					CHANNELS 3 Xrotation Yrotation Zrotation
					JOINT newVegas:RightToeBase
					{
						OFFSET -0.943001 -26.722004 15.023500
						CHANNELS 3 Xrotation Yrotation Zrotation
						End Site
						{
							OFFSET 0.000000 30.670187 0.000000
						}
					}
				}
				JOINT newVegas:Right_PantLeg
				{
					OFFSET -0.661674 -9.044716 -1.108900
					CHANNELS 3 Xrotation Yrotation Zrotation
					End Site
					{
						OFFSET -1.415958 20.635269 0.000000
					}
				}
			}
		}
	}
	JOINT newVegas:Spine
	{
		OFFSET 0.000000 10.199997 -0.299500
		CHANNELS 3 Xrotation Yrotation Zrotation
		JOINT newVegas:Spine1
		{
			OFFSET 0.000000 11.900002 -1.516600
			CHANNELS 3 Xrotation Yrotation Zrotation
			JOINT newVegas:Spine2
			{
				OFFSET 0.000000 13.600006 -2.842500
				CHANNELS 3 Xrotation Yrotation Zrotation
				JOINT newVegas:Neck
				{
					OFFSET 0.000000 9.624100 -2.890100
					CHANNELS 3 Xrotation Yrotation Zrotation
					JOINT newVegas:Head
					{
						OFFSET 0.000000 14.068802 -1.351900
						CHANNELS 3 Xrotation Yrotation Zrotation
						JOINT newVegas:Hair_Back
						{
							OFFSET 0.000000 3.231903 -17.524799
							CHANNELS 3 Xrotation Yrotation Zrotation
							End Site
							{
								OFFSET 0.000000 19.849884 0.000000
							}
						}
						JOINT newVegas:Hair_Front
						{
							OFFSET 0.000000 31.260406 4.573800
							CHANNELS 3 Xrotation Yrotation Zrotation
							JOINT newVegas:Hair_Front1
							{
								OFFSET 0.000000 2.284103 11.993300
								CHANNELS 3 Xrotation Yrotation Zrotation
								JOINT newVegas:Hair_Front2
								{
									OFFSET 0.000000 2.284103 11.993300
									CHANNELS 3 Xrotation Yrotation Zrotation
									End Site
									{
										OFFSET 0.000000 12.208862 0.000000
									}
								}
							}
						}
						JOINT newVegas:Jowel
						{
							OFFSET 0.000000 -7.458206 6.864100
							CHANNELS 3 Xrotation Yrotation Zrotation
							End Site
							{
								OFFSET 0.000000 19.849884 0.000000
							}
						}
					}
				}
				JOINT newVegas:LeftShoulder
				{
					OFFSET 15.263000 10.923401 -0.547700
					CHANNELS 3 Xrotation Yrotation Zrotation
					JOINT newVegas:LeftArm
					{
						OFFSET 25.438599 -2.830597 -13.032500
						CHANNELS 3 Xrotation Yrotation Zrotation
						JOINT newVegas:LeftForeArm
						{
							OFFSET 29.960503 0.000000 0.000000
							CHANNELS 3 Xrotation Yrotation Zrotation
							JOINT newVegas:LeftHand
							{
								OFFSET 27.849251 0.000000 0.000000
								CHANNELS 3 Xrotation Yrotation Zrotation
								JOINT newVegas:LeftHandThumb1
								{
									OFFSET 4.487587 -3.305161 6.305391
									CHANNELS 3 Xrotation Yrotation Zrotation
									JOINT newVegas:LeftHandThumb2
									{
										OFFSET 5.480453 -3.164139 3.164143
										CHANNELS 3 Xrotation Yrotation Zrotation
										JOINT newVegas:LeftHandThumb3
										{
											OFFSET 5.159721 -2.978973 2.978967
											CHANNELS 3 Xrotation Yrotation Zrotation
											End Site
											{
												OFFSET 2.494507 5.926697 1.738678
											}
										}
									}
								}
								JOINT newVegas:LeftHandIndex1
								{
									OFFSET 18.578728 -0.527832 5.208049
									CHANNELS 3 Xrotation Yrotation Zrotation
									JOINT newVegas:LeftHandIndex2
									{
										OFFSET 3.192009 0.000000 0.000000
										CHANNELS 3 Xrotation Yrotation Zrotation
										JOINT newVegas:LeftHandIndex3
										{
											OFFSET 3.835129 0.000000 0.000000
											CHANNELS 3 Xrotation Yrotation Zrotation
											End Site
											{
												OFFSET -0.034599 3.816971 0.371180
											}
										}
									}
								}
								JOINT newVegas:LeftHandMiddle1
								{
									OFFSET 18.476105 0.000000 0.000000
									CHANNELS 3 Xrotation Yrotation Zrotation
									JOINT newVegas:LeftHandMiddle2
									{
										OFFSET 3.324875 0.000000 0.000000
										CHANNELS 3 Xrotation Yrotation Zrotation
										JOINT newVegas:LeftHandMiddle3
										{
											OFFSET 4.596550 0.000000 0.000000
											CHANNELS 3 Xrotation Yrotation Zrotation
											End Site
											{
												OFFSET 0.057701 4.578827 0.399218
											}
										}
									}
								}
								JOINT newVegas:LeftHandRing1
								{
									OFFSET 17.732719 0.121887 -4.201567
									CHANNELS 3 Xrotation Yrotation Zrotation
									JOINT newVegas:LeftHandRing2
									{
										OFFSET 2.733170 0.000000 0.000000
										CHANNELS 3 Xrotation Yrotation Zrotation
										JOINT newVegas:LeftHandRing3
										{
											OFFSET 3.178268 0.000000 0.000000
											CHANNELS 3 Xrotation Yrotation Zrotation
											End Site
											{
												OFFSET 0.119102 3.170624 0.185394
											}
										}
									}
								}
								JOINT newVegas:LeftHandPinky1
								{
									OFFSET 15.989624 -0.606689 -7.535461
									CHANNELS 3 Xrotation Yrotation Zrotation
									JOINT newVegas:LeftHandPinky2
									{
										OFFSET 2.538986 0.000000 0.000000
										CHANNELS 3 Xrotation Yrotation Zrotation
										JOINT newVegas:LeftHandPinky3
										{
											OFFSET 2.593102 0.000000 0.000000
											CHANNELS 3 Xrotation Yrotation Zrotation
											End Site
											{
												OFFSET -0.150902 2.584198 0.152708
											}
										}
									}
								}
							}
							JOINT newVegas:Left_Sleeve
							{
								OFFSET 0.267448 -0.649796 0.577675
								CHANNELS 3 Xrotation Yrotation Zrotation
								End Site
								{
									OFFSET 0.000000 15.991241 0.000000
								}
							}
							JOINT newVegas:Left_CapeC
							{
								OFFSET 15.715958 -8.608795 -6.935905
								CHANNELS 3 Xrotation Yrotation Zrotation
								JOINT newVegas:Left_CapeC1
								{
									OFFSET 0.000000 -8.688499 0.000000
									CHANNELS 3 Xrotation Yrotation Zrotation
									End Site
									{
										OFFSET 0.000000 8.688499 0.000000
									}
								}
							}
						}
						JOINT newVegas:Left_CapeB
						{
							OFFSET 26.118385 -8.608795 -7.079235
							CHANNELS 3 Xrotation Yrotation Zrotation
							JOINT newVegas:Left_CapeB1
							{
								OFFSET 0.000000 -8.688499 0.000000
								CHANNELS 3 Xrotation Yrotation Zrotation
								End Site
								{
									OFFSET 0.000000 8.688499 0.000000
								}
							}
						}
						JOINT newVegas:Left_CapeA
						{
							OFFSET 5.115639 -8.608795 -10.395809
							CHANNELS 3 Xrotation Yrotation Zrotation
							JOINT newVegas:Left_CapeA1
							{
								OFFSET 0.000000 -8.688499 0.000000
								CHANNELS 3 Xrotation Yrotation Zrotation
								End Site
								{
									OFFSET 0.000000 8.688499 0.000000
								}
							}
						}
					}
				}
				JOINT newVegas:RightShoulder
				{
					OFFSET -15.263000 10.923401 -0.547700
					CHANNELS 3 Xrotation Yrotation Zrotation
					JOINT newVegas:RightArm
					{
						OFFSET -25.438599 -2.830597 -13.032500
						CHANNELS 3 Xrotation Yrotation Zrotation
						JOINT newVegas:RightForeArm
						{
							OFFSET -29.960503 0.000000 0.000000
							CHANNELS 3 Xrotation Yrotation Zrotation
							JOINT newVegas:RightHand
							{
								OFFSET -27.849251 0.000000 0.000000
								CHANNELS 3 Xrotation Yrotation Zrotation
								JOINT newVegas:RightHandThumb1
								{
									OFFSET -4.487587 -3.305161 6.305391
									CHANNELS 3 Xrotation Yrotation Zrotation
									JOINT newVegas:RightHandThumb2
									{
										OFFSET -5.480453 -3.164139 3.164143
										CHANNELS 3 Xrotation Yrotation Zrotation
										JOINT newVegas:RightHandThumb3
										{
											OFFSET -5.159721 -2.978973 2.978967
											CHANNELS 3 Xrotation Yrotation Zrotation
											End Site
											{
												OFFSET -2.494507 5.926697 1.738678
											}
										}
									}
								}
								JOINT newVegas:RightHandIndex1
								{
									OFFSET -18.578728 -0.527832 5.208049
									CHANNELS 3 Xrotation Yrotation Zrotation
									JOINT newVegas:RightHandIndex2
									{
										OFFSET -3.192009 0.000000 0.000000
										CHANNELS 3 Xrotation Yrotation Zrotation
										JOINT newVegas:RightHandIndex3
										{
											OFFSET -3.835129 0.000000 0.000000
											CHANNELS 3 Xrotation Yrotation Zrotation
											End Site
											{
												OFFSET 0.034599 3.816971 0.371180
											}
										}
									}
								}
								JOINT newVegas:RightHandMiddle1
								{
									OFFSET -18.476105 0.000000 0.000000
									CHANNELS 3 Xrotation Yrotation Zrotation
									JOINT newVegas:RightHandMiddle2
									{
										OFFSET -3.324875 0.000000 0.000000
										CHANNELS 3 Xrotation Yrotation Zrotation
										JOINT newVegas:RightHandMiddle3
										{
											OFFSET -4.596550 0.000000 0.000000
											CHANNELS 3 Xrotation Yrotation Zrotation
											End Site
											{
												OFFSET -0.057701 4.578827 0.399218
											}
										}
									}
								}
								JOINT newVegas:RightHandRing1
								{
									OFFSET -17.732719 0.121887 -4.201567
									CHANNELS 3 Xrotation Yrotation Zrotation
									JOINT newVegas:RightHandRing2
									{
										OFFSET -2.733170 0.000000 0.000000
										CHANNELS 3 Xrotation Yrotation Zrotation
										JOINT newVegas:RightHandRing3
										{
											OFFSET -3.178268 0.000000 0.000000
											CHANNELS 3 Xrotation Yrotation Zrotation
											End Site
											{
												OFFSET -0.119102 3.170624 0.185394
											}
										}
									}
								}
								JOINT newVegas:RightHandPinky1
								{
									OFFSET -15.989624 -0.606689 -7.535461
									CHANNELS 3 Xrotation Yrotation Zrotation
									JOINT newVegas:RightHandPinky2
									{
										OFFSET -2.538986 0.000000 0.000000
										CHANNELS 3 Xrotation Yrotation Zrotation
										JOINT newVegas:RightHandPinky3
										{
											OFFSET -2.593102 0.000000 0.000000
											CHANNELS 3 Xrotation Yrotation Zrotation
											End Site
											{
												OFFSET 0.150902 2.584198 0.152708
											}
										}
									}
								}
							}
							JOINT newVegas:Right_CapeC
							{
								OFFSET -15.715958 -8.608795 -6.935905
								CHANNELS 3 Xrotation Yrotation Zrotation
								JOINT newVegas:Right_CapeC1
								{
									OFFSET 0.000000 -8.688499 0.000000
									CHANNELS 3 Xrotation Yrotation Zrotation
									End Site
									{
										OFFSET 0.000000 8.688499 0.000000
									}
								}
							}
							JOINT newVegas:Right_Sleeve
							{
								OFFSET -0.267448 -0.649994 0.577675
								CHANNELS 3 Xrotation Yrotation Zrotation
								End Site
								{
									OFFSET 0.000000 15.991302 0.000000
								}
							}
						}
						JOINT newVegas:Right_CapeA
						{
							OFFSET -5.115540 -8.608795 -10.395824
							CHANNELS 3 Xrotation Yrotation Zrotation
							JOINT newVegas:Right_CapeA1
							{
								OFFSET 0.000000 -8.688499 0.000000
								CHANNELS 3 Xrotation Yrotation Zrotation
								End Site
								{
									OFFSET 0.000000 8.688499 0.000000
								}
							}
						}
						JOINT newVegas:Right_CapeB
						{
							OFFSET -26.118187 -8.608795 -7.079266
							CHANNELS 3 Xrotation Yrotation Zrotation
							JOINT newVegas:Right_CapeB1
							{
								OFFSET 0.000000 -8.688499 0.000000
								CHANNELS 3 Xrotation Yrotation Zrotation
								End Site
								{
									OFFSET 0.000000 8.688499 0.000000
								}
							}
						}
					}
				}
				JOINT newVegas:Left_Collar
				{
					OFFSET 18.625099 8.655502 8.828100
					CHANNELS 3 Xrotation Yrotation Zrotation
					JOINT newVegas:Left_Collar1
					{
						OFFSET 14.783401 10.540405 -1.259500
						CHANNELS 3 Xrotation Yrotation Zrotation
						End Site
						{
							OFFSET 0.000000 18.199875 0.000000
						}
					}
				}
				JOINT newVegas:Collar_Back
				{
					OFFSET 0.000000 15.630707 -20.132601
					CHANNELS 3 Xrotation Yrotation Zrotation
					End Site
					{
						OFFSET 0.000000 22.523010 0.000000
					}
				}
				JOINT newVegas:Left_Peck
				{
					OFFSET 17.239599 -5.132599 25.482599
					CHANNELS 3 Xrotation Yrotation Zrotation
					End Site
					{
						OFFSET 0.000000 22.523010 0.000000
					}
				}
				JOINT newVegas:Right_Peck
				{
					OFFSET -17.239599 -5.132202 25.482599
					CHANNELS 3 Xrotation Yrotation Zrotation
					End Site
					{
						OFFSET 0.000000 22.523010 0.000000
					}
				}
				JOINT newVegas:Right_Collar
				{
					OFFSET -18.625099 8.655792 8.828100
					CHANNELS 3 Xrotation Yrotation Zrotation
					JOINT newVegas:Right_Collar1
					{
						OFFSET -14.783401 10.539993 -1.259500
						CHANNELS 3 Xrotation Yrotation Zrotation
						End Site
						{
							OFFSET 0.000000 18.199631 0.000000
						}
					}
				}
			}
		}
		JOINT newVegas:Belly
		{
			OFFSET 0.000000 -6.540398 9.014299
			CHANNELS 3 Xrotation Yrotation Zrotation
			End Site
			{
				OFFSET 0.000000 11.566666 0.000000
			}
		}
	}
	JOINT newVegas:ElvisFacialAnim_Joint
	{
		OFFSET 1.000000 -95.330101 -8.825800
		CHANNELS 3 Xrotation Yrotation Zrotation
		End Site
		{
			OFFSET 0.000000 35.315800 0.000000
		}
	}
}
MOTION
Frames: 4
Frame Time: 0.033333
0.359985 48.942924 17.203167 74.108379 51.973662 -69.941362 0.000001 0.000000 0.000000 -102.881616 -34.992090 25.949680 120.935876 -19.979225 -0.980545 -36.649026 22.899264 -23.819687 0.000000 0.000000 -0.000000 0.000002 0.000001 0.000002 -124.255676 28.572011 -44.366651 101.085966 -1.822581 0.649379 13.746925 -12.940479 20.066321 0.000000 0.000001 -0.000000 0.000001 -0.000000 -0.000003 15.047241 0.996527 1.051674 14.413560 1.544077 1.881104 14.434922 0.970813 2.118869 -7.241633 -4.707540 2.508822 -7.241647 -4.707531 2.508845 0.000000 0.000000 -0.000001 -7.241542 -4.707535 2.508856 -7.241689 -4.707559 2.508846 0.000003 -0.000001 0.000000 0.000000 0.000000 -0.000001 0.556487 -9.928295 -10.239251 31.482043 -28.371827 -52.527174 0.000006 -44.561343 0.000005 -13.189024 -38.820036 33.456135 29.066198 -25.196395 8.802370 13.665571 42.651485 -11.448831 0.000000 0.000000 -0.000001 2.649587 -7.781733 -22.949046 2.020222 4.425923 -49.051765 0.000000 -0.000001 -0.000002 -0.906042 2.844532 -35.278521 2.057911 4.458237 -49.538457 0.000000 0.000002 0.000001 4.540205 16.352475 -18.454864 0.803287 2.962709 -30.334383 -0.000000 0.000001 0.000003 -3.834719 21.147650 12.669577 0.681817 2.744861 -27.894846 -0.000002 -0.000003 -0.000000 -0.000000 -0.000001 0.000002 -0.000000 -0.000001 0.000002 -0.000001 -0.000001 0.000002 -0.000002 -0.000003 -0.000003 -0.000002 -0.000004 -0.000003 -0.000002 -0.000003 -0.000003 -0.000003 -0.000003 -0.000004 0.258620 8.910421 16.558726 -57.929273 -0.222029 3.263133 -0.000008 58.992057 0.000007 17.161096 6.565836 -38.737203 -13.883083 -3.695135 13.911968 7.375295 -23.020784 -2.783709 0.000001 -0.000001 -0.000002 0.078011 -1.754119 -6.493639 0.027751 -0.508183 6.250801 -0.000001 0.000001 0.000001 0.068866 -2.722093 5.410674 0.028370 -0.513856 6.320903 0.000000 0.000004 -0.000000 3.283485 -10.155108 25.110496 0.330892 -1.725759 21.706281 -0.000001 -0.000003 0.000002 10.235425 -21.028460 34.973263 0.938124 -2.805174 36.976667 -0.000001 0.000001 0.000002 -0.000001 0.000001 -0.000003 0.000000 0.000001 -0.000002 -0.000001 0.000001 -0.000003 0.000001 -0.000001 -0.000002 0.000000 0.000000 -0.000002 0.000001 -0.000001 -0.000002 0.000000 -0.000000 -0.000000 -0.000001 0.000000 0.000000 -0.000001 0.000000 0.000000 -0.000001 0.000000 0.000000 -0.000001 0.000000 0.000000 -0.000001 0.000000 0.000000 -0.000001 0.000000 0.000000 -0.000001 0.000000 0.000000 0.000001 0.000000 -0.000000 0.000001 0.000000 0.000000 
0.361568 48.944153 17.288702 74.108447 51.908119 -69.929307 -0.000003 -0.000000 0.000000 -102.709414 -35.073086 26.059934 120.814749 -19.989428 -0.972292 -36.612000 23.000034 -24.015589 -0.000000 -0.000001 -0.000000 0.000002 -0.000002 0.000001 -124.437085 28.494094 -44.329048 101.211546 -1.835496 0.649938 13.602356 -12.936621 19.936639 0.000000 0.000000 0.000000 -0.000001 -0.000001 -0.000000 15.004440 1.004988 1.053872 14.373156 1.532966 1.876150 14.394304 0.962617 2.111949 -7.245434 -4.712069 2.510480 -7.245425 -4.712070 2.510460 0.000002 0.000001 -0.000000 -7.245421 -4.712079 2.510474 -7.245403 -4.712076 2.510485 0.000002 -0.000002 0.000002 0.000002 0.000001 -0.000000 0.553674 -9.943342 -10.286546 31.477043 -28.160361 -52.354547 -0.000004 -44.293446 0.000003 -13.265198 -38.896817 33.381641 29.066205 -25.196406 8.802405 13.665562 42.651489 -11.448798 0.000002 -0.000001 -0.000006 2.649600 -7.781746 -22.949060 2.020221 4.425923 -49.051765 0.000000 -0.000002 0.000000 -0.906040 2.844506 -35.278501 2.057918 4.458261 -49.538457 0.000000 -0.000002 -0.000001 4.540196 16.352463 -18.454855 0.803301 2.962713 -30.334386 0.000004 -0.000002 0.000001 -3.834734 21.147650 12.669599 0.681837 2.744866 -27.894868 -0.000001 0.000000 0.000001 0.000001 0.000003 -0.000003 0.000001 0.000003 -0.000003 0.000000 0.000003 -0.000003 -0.000002 0.000000 0.000000 -0.000002 -0.000001 0.000000 -0.000002 0.000000 0.000000 -0.000003 0.000001 0.000000 0.251896 8.973293 16.618371 -57.657616 -0.300643 3.231513 0.000000 58.988676 -0.000011 17.202371 6.572199 -38.595596 -13.883084 -3.695128 13.911968 7.375295 -23.020785 -2.783700 0.000001 -0.000002 -0.000003 0.078014 -1.754121 -6.493639 0.027750 -0.508188 6.250797 0.000001 -0.000000 0.000001 0.068864 -2.722085 5.410674 0.028373 -0.513878 6.320905 0.000000 -0.000003 0.000001 3.283489 -10.155114 25.110507 0.330886 -1.725735 21.706273 0.000002 0.000001 0.000001 10.235418 -21.028455 34.973246 0.938139 -2.805177 36.976667 -0.000000 -0.000000 0.000001 0.000001 0.000000 0.000001 -0.000001 -0.000001 -0.000001 0.000001 0.000000 0.000001 -0.000000 0.000002 -0.000002 -0.000001 0.000003 -0.000002 -0.000000 0.000002 -0.000002 -0.000001 0.000003 -0.000002 -0.000001 -0.000000 0.000000 -0.000001 -0.000000 0.000000 -0.000001 -0.000000 0.000000 -0.000001 -0.000000 0.000000 -0.000001 -0.000000 0.000000 -0.000001 -0.000000 0.000000 -0.000001 -0.000000 0.000000 -0.000000 0.000000 -0.000001 -0.000003 -0.000000 0.000000 
0.370029 48.996666 17.379513 74.097369 51.846784 -69.911173 0.000002 -0.000000 -0.000000 -102.506700 -35.068175 26.175667 120.633900 -19.953257 -0.957139 -36.606170 23.025975 -24.117103 -0.000000 0.000000 -0.000001 -0.000001 0.000000 0.000002 -124.545426 28.335979 -44.294316 101.286767 -1.858538 0.648652 13.411894 -12.948270 19.807204 0.000000 0.000000 -0.000000 0.000002 -0.000002 -0.000001 14.980283 1.018552 1.056682 14.349322 1.523441 1.872243 14.370216 0.956311 2.106248 -7.246431 -4.717906 2.514120 -7.246464 -4.717904 2.514117 0.000001 -0.000000 -0.000002 -7.246385 -4.717907 2.514116 -7.246510 -4.717924 2.514110 0.000001 0.000001 -0.000002 0.000001 -0.000000 -0.000000 0.550725 -9.950851 -10.338001 31.438357 -28.025164 -52.195097 0.000019 -43.983778 0.000005 -13.331300 -38.971779 33.321235 29.066201 -25.196395 8.802382 13.665568 42.651478 -11.448807 0.000000 -0.000001 -0.000004 2.649577 -7.781739 -22.949062 2.020214 4.425928 -49.051765 -0.000000 0.000001 -0.000001 -0.906045 2.844519 -35.278518 2.057918 4.458239 -49.538478 0.000000 0.000000 -0.000001 4.540200 16.352468 -18.454879 0.803298 2.962722 -30.334373 0.000002 0.000001 0.000002 -3.834721 21.147659 12.669572 0.681828 2.744876 -27.894868 -0.000001 -0.000005 -0.000001 0.000001 0.000000 0.000000 0.000001 0.000000 0.000000 -0.000000 0.000000 0.000000 0.000000 0.000000 -0.000001 0.000001 -0.000001 -0.000001 0.000000 0.000000 -0.000001 -0.000000 0.000000 -0.000001 0.242599 9.025043 16.741825 -57.566262 -0.357388 3.243538 -0.000007 59.015157 0.000002 17.235011 6.617789 -38.540206 -13.883089 -3.695114 13.911967 7.375307 -23.020813 -2.783703 -0.000000 -0.000001 -0.000002 0.078013 -1.754112 -6.493641 0.027749 -0.508190 6.250799 -0.000000 0.000002 -0.000001 0.068867 -2.722105 5.410677 0.028376 -0.513857 6.320901 -0.000000 0.000001 -0.000001 3.283485 -10.155120 25.110506 0.330890 -1.725728 21.706258 0.000001 -0.000003 -0.000003 10.235419 -21.028448 34.973256 0.938118 -2.805172 36.976667 0.000002 0.000005 0.000000 -0.000000 0.000004 -0.000000 -0.000000 0.000002 0.000000 -0.000000 0.000004 -0.000001 0.000002 0.000001 -0.000003 0.000001 0.000002 -0.000002 0.000002 0.000001 -0.000003 0.000002 0.000003 -0.000003 0.000001 -0.000000 0.000000 0.000001 -0.000000 0.000000 0.000001 -0.000000 0.000000 0.000001 -0.000000 0.000000 0.000001 -0.000000 0.000000 0.000001 -0.000000 0.000000 0.000001 -0.000000 0.000000 -0.000000 -0.000000 0.000000 0.000002 -0.000000 -0.000000 
0.380554 49.108978 17.469833 74.108638 51.789568 -69.912484 -0.000003 0.000000 -0.000000 -102.289138 -34.962946 26.249056 120.368342 -19.861376 -0.933209 -36.585946 23.040561 -24.170247 -0.000000 0.000000 -0.000000 0.000002 0.000000 -0.000000 -124.552215 28.119850 -44.255798 101.298208 -1.894770 0.644616 13.187710 -12.994571 19.715582 0.000000 0.000001 0.000000 -0.000001 0.000002 -0.000003 14.965908 1.027178 1.063819 14.333963 1.510607 1.870587 14.354515 0.946804 2.102463 -7.245101 -4.723953 2.521667 -7.245121 -4.723958 2.521685 -0.000001 0.000001 -0.000000 -7.245112 -4.723957 2.521668 -7.245111 -4.723977 2.521696 0.000001 -0.000001 0.000002 -0.000001 0.000001 -0.000000 0.548868 -9.972391 -10.368852 31.411569 -27.986611 -52.057806 -0.000006 -43.721475 -0.000013 -13.371791 -39.043076 33.282231 29.066218 -25.196399 8.802388 13.665570 42.651478 -11.448809 0.000002 -0.000002 -0.000003 2.649601 -7.781733 -22.949055 2.020202 4.425915 -49.051755 0.000001 0.000000 -0.000003 -0.906041 2.844512 -35.278514 2.057908 4.458230 -49.538450 -0.000001 0.000000 0.000000 4.540214 16.352463 -18.454867 0.803297 2.962719 -30.334380 0.000003 0.000003 -0.000006 -3.834722 21.147666 12.669592 0.681801 2.744860 -27.894849 0.000002 -0.000005 -0.000001 -0.000000 0.000000 -0.000004 -0.000000 0.000000 -0.000004 -0.000001 0.000000 -0.000004 -0.000001 -0.000001 -0.000002 -0.000001 -0.000002 -0.000002 -0.000001 -0.000001 -0.000002 -0.000002 -0.000001 -0.000003 0.232863 9.043648 16.914837 -57.580564 -0.359506 3.306837 -0.000023 59.038318 0.000021 17.257284 6.683758 -38.535818 -13.883088 -3.695123 13.911970 7.375297 -23.020809 -2.783709 0.000002 -0.000003 -0.000004 0.078012 -1.754127 -6.493637 0.027755 -0.508182 6.250797 0.000002 0.000002 -0.000001 0.068860 -2.722098 5.410677 0.028376 -0.513861 6.320897 0.000002 -0.000004 -0.000000 3.283485 -10.155112 25.110497 0.330886 -1.725735 21.706268 0.000002 -0.000001 0.000001 10.235426 -21.028462 34.973256 0.938126 -2.805169 36.976680 -0.000000 0.000002 -0.000000 0.000000 -0.000001 0.000002 -0.000000 0.000003 0.000003 0.000000 -0.000001 0.000002 -0.000000 -0.000001 0.000001 -0.000001 -0.000001 -0.000000 -0.000000 -0.000001 0.000001 -0.000001 -0.000001 -0.000000 -0.000001 -0.000000 -0.000002 -0.000001 -0.000000 -0.000002 -0.000001 -0.000000 -0.000002 -0.000001 -0.000000 -0.000002 -0.000001 -0.000000 -0.000002 -0.000001 -0.000000 -0.000002 -0.000001 -0.000000 -0.000002 -0.000004 0.000001 -0.000001 -0.000003 0.000000 -0.000000 
